#Comment line ignore any data following # character 
#Hierarchical Translation and Rotation (.htr) file 
[Header]	
#Header keywords are followed by a single value 
FileType HTR		#Single word string
DataType HTRS		#Translation followed by rotation and scale data
FileVersion 1		#integer
NumSegments 84		#integer
NumFrames 2		#integer
DataFrameRate 30		#integer, data frame rate in this file
EulerRotationOrder ZYX
CalibrationUnits mm
RotationUnits Degrees
GlobalAxisofGravity Y
BoneLengthAxis Y
ScaleFactor 1.00
[SegmentNames&Hierarchy]
#CHILD	PARENT
MASTER GLOBAL
root MASTER
chest root
L_mid_tent01 root
R_mid_tent01 root
spine01 root
Bip01_Neck chest
L_humerus chest
R_humerus chest
weapon_bone chest
Bip01_Head Bip01_Neck
eye_left_bone Bip01_Head
eye_right_bone Bip01_Head
L_forearm L_humerus
L_front_hand L_forearm
L_weapon_bone L_forearm
L_front_hand01_01 L_front_hand
L_front_hand02_01 L_front_hand
L_front_hand03_01 L_front_hand
L_front_hand01_02 L_front_hand01_01
L_front_hand02_02 L_front_hand02_01
L_front_hand03_02 L_front_hand03_01
R_forearm R_humerus
R_front_hand R_forearm
R_weapon_bone R_forearm
R_front_hand01_01 R_front_hand
R_front_hand02_01 R_front_hand
R_front_hand03_01 R_front_hand
R_front_hand01_02 R_front_hand01_01
R_front_hand02_02 R_front_hand02_01
R_front_hand03_02 R_front_hand03_01
null_rope01_connect L_mid_tent01
Rope1_Seg01 null_rope01_connect
Rope1_Seg02 Rope1_Seg01
Rope1_Seg03 Rope1_Seg02
Rope1_Seg04 Rope1_Seg03
Rope1_Seg05 Rope1_Seg04
Rope1_Seg06 Rope1_Seg05
Rope1_Seg07 Rope1_Seg06
Rope1_Seg09 Rope1_Seg07
L_mid_hand01 Rope1_Seg09
L_mid_hand02 Rope1_Seg09
L_mid_hand03 Rope1_Seg09
null_rope02_connect R_mid_tent01
Rope2_Seg01 null_rope02_connect
Rope2_Seg02 Rope2_Seg01
Rope2_Seg03 Rope2_Seg02
Rope2_Seg04 Rope2_Seg03
Rope2_Seg05 Rope2_Seg04
Rope2_Seg06 Rope2_Seg05
Rope2_Seg07 Rope2_Seg06
Rope2_Seg09 Rope2_Seg07
R_mid_hand01 Rope2_Seg09
R_mid_hand02 Rope2_Seg09
R_mid_hand03 Rope2_Seg09
spine02 spine01
spine03 spine02
pelvis spine03
null_rope03_connect pelvis
null_rope04_connect pelvis
Rope3_Seg01 null_rope03_connect
Rope3_Seg02 Rope3_Seg01
Rope3_Seg03 Rope3_Seg02
Rope3_Seg04 Rope3_Seg03
Rope3_Seg05 Rope3_Seg04
Rope3_Seg06 Rope3_Seg05
Rope3_Seg07 Rope3_Seg06
Rope3_Seg08 Rope3_Seg07
Rope3_Seg09 Rope3_Seg08
R_rear_hand01 Rope3_Seg09
R_rear_hand02 Rope3_Seg09
R_rear_hand03 Rope3_Seg09
Rope4_Seg01 null_rope04_connect
Rope4_Seg02 Rope4_Seg01
Rope4_Seg03 Rope4_Seg02
Rope4_Seg04 Rope4_Seg03
Rope4_Seg05 Rope4_Seg04
Rope4_Seg06 Rope4_Seg05
Rope4_Seg07 Rope4_Seg06
Rope4_Seg08 Rope4_Seg07
Rope4_Seg09 Rope4_Seg08
L_rear_hand01 Rope4_Seg09
L_rear_hand02 Rope4_Seg09
L_rear_hand03 Rope4_Seg09
[BasePosition]
#SegmentName Tx, Ty, Tz, Rx, Ry, Rz, BoneLength
MASTER 0.000000 0.000000 0.000000 -90.000000 0.000000 0.000000 10.000000 
root 0.000000 0.000000 0.000000 0.000000 0.000000 0.000000 10.000000 
chest 0.000000 0.000000 0.000000 0.000000 0.000000 0.000000 10.000000 
L_mid_tent01 0.000000 0.000000 0.000000 0.000000 0.000000 0.000000 10.000000 
R_mid_tent01 0.000000 0.000000 0.000000 0.000000 0.000000 0.000000 10.000000 
spine01 0.000000 0.000000 0.000000 0.000000 0.000000 0.000000 10.000000 
Bip01_Neck 0.000000 0.000000 0.000000 0.000000 0.000000 0.000000 10.000000 
L_humerus 0.000000 0.000000 0.000000 0.000000 0.000000 0.000000 10.000000 
R_humerus 0.000000 0.000000 0.000000 0.000000 0.000000 0.000000 10.000000 
weapon_bone 0.000000 0.000000 0.000000 0.000000 0.000000 0.000000 10.000000 
Bip01_Head 0.000000 0.000000 0.000000 0.000000 0.000000 0.000000 10.000000 
eye_left_bone 0.000000 0.000000 0.000000 0.000000 0.000000 0.000000 10.000000 
eye_right_bone 0.000000 0.000000 0.000000 0.000000 0.000000 0.000000 10.000000 
L_forearm 0.000000 0.000000 0.000000 0.000000 0.000000 0.000000 10.000000 
L_front_hand 0.000000 0.000000 0.000000 0.000000 0.000000 0.000000 10.000000 
L_weapon_bone 0.000000 0.000000 0.000000 0.000000 0.000000 0.000000 10.000000 
L_front_hand01_01 0.000000 0.000000 0.000000 0.000000 0.000000 0.000000 10.000000 
L_front_hand02_01 0.000000 0.000000 0.000000 0.000000 0.000000 0.000000 10.000000 
L_front_hand03_01 0.000000 0.000000 0.000000 0.000000 0.000000 0.000000 10.000000 
L_front_hand01_02 0.000000 0.000000 0.000000 0.000000 0.000000 0.000000 10.000000 
L_front_hand02_02 0.000000 0.000000 0.000000 0.000000 0.000000 0.000000 10.000000 
L_front_hand03_02 0.000000 0.000000 0.000000 0.000000 0.000000 0.000000 10.000000 
R_forearm 0.000000 0.000000 0.000000 0.000000 0.000000 0.000000 10.000000 
R_front_hand 0.000000 0.000000 0.000000 0.000000 0.000000 0.000000 10.000000 
R_weapon_bone 0.000000 0.000000 0.000000 0.000000 0.000000 0.000000 10.000000 
R_front_hand01_01 0.000000 0.000000 0.000000 0.000000 0.000000 0.000000 10.000000 
R_front_hand02_01 0.000000 0.000000 0.000000 0.000000 0.000000 0.000000 10.000000 
R_front_hand03_01 0.000000 0.000000 0.000000 0.000000 0.000000 0.000000 10.000000 
R_front_hand01_02 0.000000 0.000000 0.000000 0.000000 0.000000 0.000000 10.000000 
R_front_hand02_02 0.000000 0.000000 0.000000 0.000000 0.000000 0.000000 10.000000 
R_front_hand03_02 0.000000 0.000000 0.000000 0.000000 0.000000 0.000000 10.000000 
null_rope01_connect 0.000000 0.000000 0.000000 0.000000 0.000000 0.000000 10.000000 
Rope1_Seg01 0.000000 0.000000 0.000000 0.000000 0.000000 0.000000 10.000000 
Rope1_Seg02 0.000000 0.000000 0.000000 0.000000 0.000000 0.000000 10.000000 
Rope1_Seg03 0.000000 0.000000 0.000000 0.000000 0.000000 0.000000 10.000000 
Rope1_Seg04 0.000000 0.000000 0.000000 0.000000 0.000000 0.000000 10.000000 
Rope1_Seg05 0.000000 0.000000 0.000000 0.000000 0.000000 0.000000 10.000000 
Rope1_Seg06 0.000000 0.000000 0.000000 0.000000 0.000000 0.000000 10.000000 
Rope1_Seg07 0.000000 0.000000 0.000000 0.000000 0.000000 0.000000 10.000000 
Rope1_Seg09 0.000000 0.000000 0.000000 0.000000 0.000000 0.000000 10.000000 
L_mid_hand01 0.000000 0.000000 0.000000 0.000000 0.000000 0.000000 10.000000 
L_mid_hand02 0.000000 0.000000 0.000000 0.000000 0.000000 0.000000 10.000000 
L_mid_hand03 0.000000 0.000000 0.000000 0.000000 0.000000 0.000000 10.000000 
null_rope02_connect 0.000000 0.000000 0.000000 0.000000 0.000000 0.000000 10.000000 
Rope2_Seg01 0.000000 0.000000 0.000000 0.000000 0.000000 0.000000 10.000000 
Rope2_Seg02 0.000000 0.000000 0.000000 0.000000 0.000000 0.000000 10.000000 
Rope2_Seg03 0.000000 0.000000 0.000000 0.000000 0.000000 0.000000 10.000000 
Rope2_Seg04 0.000000 0.000000 0.000000 0.000000 0.000000 0.000000 10.000000 
Rope2_Seg05 0.000000 0.000000 0.000000 0.000000 0.000000 0.000000 10.000000 
Rope2_Seg06 0.000000 0.000000 0.000000 0.000000 0.000000 0.000000 10.000000 
Rope2_Seg07 0.000000 0.000000 0.000000 0.000000 0.000000 0.000000 10.000000 
Rope2_Seg09 0.000000 0.000000 0.000000 0.000000 0.000000 0.000000 10.000000 
R_mid_hand01 0.000000 0.000000 0.000000 0.000000 0.000000 0.000000 10.000000 
R_mid_hand02 0.000000 0.000000 0.000000 0.000000 0.000000 0.000000 10.000000 
R_mid_hand03 0.000000 0.000000 0.000000 0.000000 0.000000 0.000000 10.000000 
spine02 0.000000 0.000000 0.000000 0.000000 0.000000 0.000000 10.000000 
spine03 0.000000 0.000000 0.000000 0.000000 0.000000 0.000000 10.000000 
pelvis 0.000000 0.000000 0.000000 0.000000 0.000000 0.000000 10.000000 
null_rope03_connect 0.000000 0.000000 0.000000 0.000000 0.000000 0.000000 10.000000 
null_rope04_connect 0.000000 0.000000 0.000000 0.000000 0.000000 0.000000 10.000000 
Rope3_Seg01 0.000000 0.000000 0.000000 0.000000 0.000000 0.000000 10.000000 
Rope3_Seg02 0.000000 0.000000 0.000000 0.000000 0.000000 0.000000 10.000000 
Rope3_Seg03 0.000000 0.000000 0.000000 0.000000 0.000000 0.000000 10.000000 
Rope3_Seg04 0.000000 0.000000 0.000000 0.000000 0.000000 0.000000 10.000000 
Rope3_Seg05 0.000000 0.000000 0.000000 0.000000 0.000000 0.000000 10.000000 
Rope3_Seg06 0.000000 0.000000 0.000000 0.000000 0.000000 0.000000 10.000000 
Rope3_Seg07 0.000000 0.000000 0.000000 0.000000 0.000000 0.000000 10.000000 
Rope3_Seg08 0.000000 0.000000 0.000000 0.000000 0.000000 0.000000 10.000000 
Rope3_Seg09 0.000000 0.000000 0.000000 0.000000 0.000000 0.000000 10.000000 
R_rear_hand01 0.000000 0.000000 0.000000 0.000000 0.000000 0.000000 10.000000 
R_rear_hand02 0.000000 0.000000 0.000000 0.000000 0.000000 0.000000 10.000000 
R_rear_hand03 0.000000 0.000000 0.000000 0.000000 0.000000 0.000000 10.000000 
Rope4_Seg01 0.000000 0.000000 0.000000 0.000000 0.000000 0.000000 10.000000 
Rope4_Seg02 0.000000 0.000000 0.000000 0.000000 0.000000 0.000000 10.000000 
Rope4_Seg03 0.000000 0.000000 0.000000 0.000000 0.000000 0.000000 10.000000 
Rope4_Seg04 0.000000 0.000000 0.000000 0.000000 0.000000 0.000000 10.000000 
Rope4_Seg05 0.000000 0.000000 0.000000 0.000000 0.000000 0.000000 10.000000 
Rope4_Seg06 0.000000 0.000000 0.000000 0.000000 0.000000 0.000000 10.000000 
Rope4_Seg07 0.000000 0.000000 0.000000 0.000000 0.000000 0.000000 10.000000 
Rope4_Seg08 0.000000 0.000000 0.000000 0.000000 0.000000 0.000000 10.000000 
Rope4_Seg09 0.000000 0.000000 0.000000 0.000000 0.000000 0.000000 10.000000 
L_rear_hand01 0.000000 0.000000 0.000000 0.000000 0.000000 0.000000 10.000000 
L_rear_hand02 0.000000 0.000000 0.000000 0.000000 0.000000 0.000000 10.000000 
L_rear_hand03 0.000000 0.000000 0.000000 0.000000 0.000000 0.000000 10.000000 
#Beginning of Data. Separated by tabs
#Fr	Tx	Ty	Tz	Rx	Ry	Rz	SF
[MASTER]
50 0.000000 0.000000 0.000000 0.001660 0.001660 0.001660 0.000000
51 0.000000 0.000000 0.000000 0.001660 0.001660 0.001660 0.000000
[root]
50 -35.225269 -62.822140 909.469543 -86.747658 -8.744938 -92.593414 912.317017
51 -41.014328 -62.822140 918.675476 -86.633629 -8.647535 -92.384155 921.733948
[chest]
50 -84.512650 -34.090519 0.000000 -0.307809 -0.743092 156.385437 91.129311
51 -84.512650 -34.090519 0.000000 -0.307809 -0.743092 156.385437 91.129311
[L_mid_tent01]
50 23.228750 24.509907 -223.761200 -12.532565 8.913640 -5.940191 226.294907
51 23.228750 24.509907 -223.761200 -11.944645 4.277765 -5.194622 226.294907
[R_mid_tent01]
50 23.228794 24.509907 226.238495 -160.690903 -9.872992 -17.165892 228.744751
51 23.228794 24.509907 226.238495 -160.346115 -14.307049 -20.517467 228.744751
[spine01]
50 -0.361383 -0.195265 0.000000 0.001815 0.001488 11.320962 0.410763
51 -0.361383 -0.195265 0.000000 0.001815 0.001488 11.320962 0.410763
[Bip01_Neck]
50 165.484543 71.581718 0.000119 175.896118 1.177290 24.871183 180.302734
51 165.484543 71.581718 0.000119 175.896118 1.177290 24.871183 180.302734
[L_humerus]
50 -13.983130 -135.272980 -120.471481 -104.702057 -2.574140 -132.238052 181.680161
51 -13.983130 -135.272980 -120.471481 -104.702057 -2.574140 -132.238052 181.680161
[R_humerus]
50 -13.983309 -135.273102 125.287651 84.935951 -3.633305 -127.041824 184.909012
51 -13.983309 -135.273102 125.287651 84.935959 -3.633308 -127.041824 184.909012
[weapon_bone]
50 235.964890 -300.705902 0.000000 0.000000 -89.951546 -128.212341 382.234833
51 235.964890 -300.705902 0.000000 0.000000 -89.951546 -128.212341 382.234833
[Bip01_Head]
50 201.313843 211.516800 15.929723 5.868963 9.439310 -64.219528 292.438690
51 201.313843 211.516800 15.929723 5.529686 10.026077 -64.151764 292.438690
[eye_left_bone]
50 -24.626970 125.451866 -64.772606 0.000000 -90.000000 -99.840431 143.318359
51 -24.626970 125.451866 -64.772606 0.000000 -90.000000 -99.840431 143.318359
[eye_right_bone]
50 -24.626970 125.451866 64.327362 0.000000 -89.965736 80.156380 143.117676
51 -24.626970 125.451866 64.327362 0.000000 -89.965736 80.156380 143.117676
[L_forearm]
50 322.776093 0.000000 -0.000119 0.000357 -0.002320 -107.506004 322.776093
51 322.776093 0.000000 -0.000119 0.000357 -0.002320 -107.506004 322.776093
[L_front_hand]
50 241.149185 -0.042021 -3.300071 -177.752777 -0.319468 -73.408745 241.171753
51 241.149185 -0.042021 -3.300071 -177.752777 -0.319468 -73.408745 241.171753
[L_weapon_bone]
50 156.183838 0.000000 0.000000 0.000014 0.000007 0.000001 156.183838
51 156.183838 0.000000 0.000000 0.000014 0.000007 0.000001 156.183838
[L_front_hand01_01]
50 86.095154 20.947098 -0.655860 0.139491 -0.584553 24.181786 88.609184
51 86.095154 20.947098 -0.655860 0.139491 -0.584553 24.181786 88.609184
[L_front_hand02_01]
50 86.935165 -11.437475 24.513514 119.190460 -21.905655 -12.119137 91.046425
51 86.935165 -11.437475 24.513514 119.190460 -21.905651 -12.119137 91.046425
[L_front_hand03_01]
50 86.637497 -14.123976 -20.424902 -120.437630 20.554037 -14.327168 90.126129
51 86.637497 -14.123976 -20.424902 -120.437630 20.554031 -14.327168 90.126129
[L_front_hand01_02]
50 71.020905 -0.000179 0.000030 0.000334 -0.002323 -106.379684 71.020905
51 71.020905 -0.000179 0.000030 0.000334 -0.002323 -106.379684 71.020905
[L_front_hand02_02]
50 71.020927 -0.000119 0.000060 0.000334 -0.002323 -106.379684 71.020927
51 71.020927 -0.000119 0.000060 0.000334 -0.002323 -106.379684 71.020927
[L_front_hand03_02]
50 71.020905 -0.000060 0.000060 0.000334 -0.002323 -106.379684 71.020905
51 71.020905 -0.000060 0.000060 0.000334 -0.002323 -106.379684 71.020905
[R_forearm]
50 322.776428 -0.000060 0.000030 0.213176 0.008105 -93.737396 322.776428
51 322.776428 -0.000060 0.000030 0.213176 0.008105 -93.737396 322.776428
[R_front_hand]
50 238.847015 -0.006795 2.210259 -1.721140 -0.139412 -83.351707 238.857239
51 238.847015 -0.006795 2.210259 -1.721140 -0.139412 -83.351707 238.857239
[R_weapon_bone]
50 155.664093 0.002503 -0.000030 0.003487 0.001180 -90.988930 155.664078
51 155.664093 0.002503 -0.000030 0.003487 0.001180 -90.988930 155.664078
[R_front_hand01_01]
50 87.624611 14.231146 22.918642 -119.218056 -22.033409 12.303375 91.683487
51 87.624611 14.231146 22.918642 -119.218056 -22.033409 12.303375 91.683487
[R_front_hand02_01]
50 89.356956 14.367283 -19.491137 120.545532 20.947184 14.823009 92.579636
51 89.356956 14.367283 -19.491137 120.545532 20.947184 14.823009 92.579636
[R_front_hand03_01]
50 87.286232 -22.307278 -0.143439 -0.231628 -0.392922 -24.567768 90.091743
51 87.286232 -22.307278 -0.143439 -0.231628 -0.392922 -24.567768 90.091743
[R_front_hand01_02]
50 71.020905 0.000060 0.000119 0.002323 -0.000334 106.381714 71.020905
51 71.020905 0.000060 0.000119 0.002323 -0.000334 106.381714 71.020905
[R_front_hand02_02]
50 71.020844 -0.000030 -0.000119 0.002323 -0.000334 106.381714 71.020836
51 71.020844 -0.000030 -0.000119 0.002323 -0.000334 106.381714 71.020836
[R_front_hand03_02]
50 71.020905 0.000000 0.000030 0.002323 -0.000334 106.381714 71.020905
51 71.020905 0.000000 0.000030 0.002323 -0.000334 106.381714 71.020905
[null_rope01_connect]
50 328.732483 0.000000 -0.000238 -116.308823 -74.679817 -140.429337 328.732483
51 328.732483 0.000000 -0.000238 -129.662354 -78.566200 -127.253708 328.732483
[Rope1_Seg01]
50 0.000000 0.000000 0.000000 74.911270 -26.312220 -144.143112 0.000000
51 0.000000 0.000000 0.000000 67.031021 -27.913538 -136.868286 0.000000
[Rope1_Seg02]
50 139.999863 -0.000179 0.000000 -6.289334 8.879373 3.587497 139.999863
51 139.999863 -0.000179 0.000000 -4.847900 7.598939 0.890046 139.999863
[Rope1_Seg03]
50 139.999924 0.000060 -0.000060 -5.584875 6.894906 3.326474 139.999924
51 139.999924 0.000060 -0.000060 -0.033120 2.811302 -3.230031 139.999924
[Rope1_Seg04]
50 139.999924 -0.000060 -0.000119 -1.038276 1.976947 -0.352565 139.999924
51 139.999924 -0.000060 -0.000119 -0.338293 2.517613 -2.410129 139.999924
[Rope1_Seg05]
50 139.999832 0.000119 -0.000060 -16.077557 17.177763 15.928353 139.999832
51 139.999832 0.000119 -0.000060 -19.373507 15.567530 18.122663 139.999832
[Rope1_Seg06]
50 139.999954 0.000119 -0.000060 -10.385944 9.983203 19.194088 139.999954
51 139.999954 0.000119 -0.000060 -9.654118 5.622757 18.299623 139.999954
[Rope1_Seg07]
50 139.999985 0.000060 0.000000 -2.722554 2.122254 7.046128 139.999985
51 139.999985 0.000060 0.000000 -2.340664 1.007020 6.281682 139.999985
[Rope1_Seg09]
50 121.602913 0.000119 -0.000089 -89.793175 -1.359789 0.847147 121.602913
51 121.602913 0.000119 -0.000089 -89.793175 -1.359789 0.847147 121.602913
[L_mid_hand01]
50 103.859421 1.038730 8.195221 106.855484 -31.239275 -9.461397 104.187431
51 103.859421 1.038730 8.195221 106.855484 -31.239275 -9.461397 104.187431
[L_mid_hand02]
50 105.572853 -4.139662 -10.864139 -142.331345 25.752670 -28.774628 106.211075
51 105.572853 -4.139662 -10.864139 -142.331345 25.752670 -28.774628 106.211075
[L_mid_hand03]
50 104.641464 17.579376 -3.913581 -16.122810 9.734291 34.223598 106.179977
51 104.641464 17.579376 -3.913581 -16.122810 9.734291 34.223598 106.179977
[null_rope02_connect]
50 328.732849 0.000179 -0.000119 -137.365982 67.761307 -72.397102 328.732849
51 328.732849 0.000179 -0.000119 -124.594795 65.794319 -62.153259 328.732849
[Rope2_Seg01]
50 0.000121 0.000114 -0.000125 103.277931 -40.998276 -138.244049 0.000208
51 0.000121 0.000114 -0.000127 94.572769 -44.020981 -123.659157 0.000209
[Rope2_Seg02]
50 139.999741 -0.000060 -0.000119 -0.860208 9.843332 -6.365109 139.999756
51 139.999741 -0.000060 -0.000119 -0.650422 7.423073 -7.971741 139.999756
[Rope2_Seg03]
50 140.000107 0.000030 0.000000 -0.996107 14.159077 -9.262160 140.000107
51 140.000107 0.000030 0.000000 0.138937 8.849971 -10.040466 140.000107
[Rope2_Seg04]
50 139.999802 0.000000 -0.000060 1.031607 15.662939 -15.309885 139.999802
51 139.999802 0.000000 -0.000060 3.421240 5.579295 -14.030671 139.999802
[Rope2_Seg05]
50 139.999985 -0.000060 0.000119 -0.816010 15.033999 -7.134455 139.999985
51 139.999985 -0.000060 0.000119 0.055747 12.467030 -7.071332 139.999985
[Rope2_Seg06]
50 139.999893 -0.000030 -0.000119 -11.449006 11.840146 3.268876 139.999893
51 139.999893 -0.000030 -0.000119 -9.344932 16.612259 0.655351 139.999893
[Rope2_Seg07]
50 139.999893 0.000060 -0.000060 -9.435262 6.449811 2.789475 139.999893
51 139.999893 0.000060 -0.000060 -8.025536 8.760015 0.977147 139.999893
[Rope2_Seg09]
50 121.338966 0.000089 -0.000060 33.793236 -1.359788 -0.847141 121.338966
51 121.338966 0.000089 -0.000060 33.793236 -1.359788 -0.847141 121.338966
[R_mid_hand01]
50 104.680779 11.144459 -10.335981 -41.523792 25.424656 28.595957 105.778534
51 104.680779 11.144459 -10.335981 -41.523792 25.424656 28.595957 105.778534
[R_mid_hand02]
50 104.070427 2.443552 8.231699 72.847389 -32.746803 10.013901 104.424065
51 104.070427 2.443552 8.231699 72.847389 -32.746803 10.013901 104.424065
[R_mid_hand03]
50 106.028137 -11.221827 -5.996406 -167.901306 10.259192 -37.009720 106.788818
51 106.028137 -11.221827 -5.996406 -167.901306 10.259192 -37.009720 106.788818
[spine02]
50 129.756927 0.001550 0.000119 0.001147 -1.797837 -7.854275 129.756927
51 129.756927 0.001550 0.000119 0.001147 -1.797837 -7.854275 129.756927
[spine03]
50 79.115631 0.000000 -0.000119 1.459971 -2.848092 23.765963 79.115631
51 79.115631 0.000000 -0.000119 1.459971 -2.848092 23.765959 79.115631
[pelvis]
50 169.435242 0.051022 0.000000 -0.000005 0.000003 -4.322055 169.435257
51 169.435242 0.051022 0.000000 -0.000005 0.000003 -4.322055 169.435257
[null_rope03_connect]
50 -1.257226 -2.466202 137.391083 20.886387 -84.266739 55.097271 137.418976
51 -1.257226 -2.466202 137.391083 22.456772 -84.076927 53.427761 137.418976
[null_rope04_connect]
50 -1.259640 -2.480268 -137.844437 20.886387 -84.266739 55.097271 137.872513
51 -1.259640 -2.480268 -137.844437 22.456772 -84.076927 53.427761 137.872513
[Rope3_Seg01]
50 0.000010 0.000007 -0.000028 -123.136963 -18.908884 -101.006783 0.000030
51 0.000010 0.000006 -0.000025 -123.774597 -14.470516 -102.542213 0.000028
[Rope3_Seg02]
50 139.999924 -0.000119 0.000060 -1.201757 -6.183815 -0.002757 139.999924
51 139.999924 -0.000119 0.000060 -0.965232 -4.605196 -0.697057 139.999924
[Rope3_Seg03]
50 139.999924 -0.000119 0.000119 -1.047602 -7.810556 -0.169727 139.999924
51 139.999924 -0.000119 0.000119 -0.893029 -5.591970 -0.945073 139.999924
[Rope3_Seg04]
50 139.999924 0.000119 0.000000 -0.619006 -10.769846 -0.635451 139.999924
51 139.999924 0.000119 0.000000 -0.713880 -7.180357 -1.628558 139.999924
[Rope3_Seg05]
50 139.999924 -0.000238 0.000060 1.200433 -15.755537 -1.662378 139.999924
51 139.999924 -0.000238 0.000060 0.100768 -9.594863 -2.895599 139.999924
[Rope3_Seg06]
50 139.999893 -0.000119 -0.000060 1.344297 -5.989691 0.748554 139.999893
51 139.999893 -0.000119 -0.000060 0.719220 -6.739530 0.182263 139.999893
[Rope3_Seg07]
50 139.999771 0.000060 -0.000119 0.256456 4.800445 2.888691 139.999771
51 139.999771 0.000060 -0.000119 0.738697 -2.759473 3.096053 139.999771
[Rope3_Seg08]
50 139.999985 -0.000060 0.000000 0.522980 2.080066 2.009665 139.999985
51 139.999985 -0.000060 0.000000 0.735737 -3.070645 1.594902 139.999985
[Rope3_Seg09]
50 90.185997 -0.000179 -0.000060 89.793228 -1.359877 -0.847183 90.185997
51 90.185997 -0.000179 -0.000060 89.793228 -1.359877 -0.847183 90.185997
[R_rear_hand01]
50 103.366196 -6.073594 -10.757982 -161.551193 16.666374 -30.088671 104.101845
51 103.366196 -6.073594 -10.757982 -161.551193 16.666374 -30.088671 104.101845
[R_rear_hand02]
50 100.509819 12.039542 -7.992327 -34.280552 19.289745 28.875523 101.543350
51 100.509819 12.039542 -7.992327 -34.280552 19.289745 28.875523 101.543350
[R_rear_hand03]
50 101.539970 5.215704 5.435467 83.366440 -30.933914 7.284830 101.819031
51 101.539970 5.215704 5.435467 83.366440 -30.933914 7.284830 101.819031
[Rope4_Seg01]
50 0.000010 0.000038 -0.000114 67.338737 -38.369053 -130.868164 0.000121
51 0.000010 0.000038 -0.000114 60.628338 -29.287889 -128.874420 0.000121
[Rope4_Seg02]
50 139.999985 0.000060 0.000119 -3.101067 18.520885 0.704017 139.999985
51 139.999985 0.000060 0.000119 -0.625435 17.601948 4.941152 139.999985
[Rope4_Seg03]
50 139.999924 0.000000 -0.000238 -0.365500 19.667250 1.936150 139.999924
51 139.999924 0.000000 -0.000238 0.385122 14.128681 4.540705 139.999924
[Rope4_Seg04]
50 139.999985 0.000000 0.000119 2.121908 19.834703 4.079234 139.999985
51 139.999985 0.000000 0.000119 0.624373 11.035629 5.514783 139.999985
[Rope4_Seg05]
50 139.999802 -0.000060 -0.000119 1.957874 9.280679 0.929795 139.999802
51 139.999802 -0.000060 -0.000119 0.565688 5.458077 1.236774 139.999802
[Rope4_Seg06]
50 139.999924 0.000000 0.000060 1.771644 2.002380 -2.050196 139.999924
51 139.999924 0.000000 0.000060 1.307894 3.182634 -2.144167 139.999924
[Rope4_Seg07]
50 139.999802 0.000000 0.000000 2.115224 -3.483127 -5.478670 139.999802
51 139.999802 0.000000 0.000000 2.566308 2.489890 -6.234738 139.999802
[Rope4_Seg08]
50 139.999924 0.000000 0.000119 0.173546 -2.787957 -5.228562 139.999924
51 139.999924 0.000000 0.000119 0.583041 3.011413 -4.818117 139.999924
[Rope4_Seg09]
50 90.185791 0.000060 0.000060 -135.617828 2.228885 0.850567 90.185791
51 90.185791 0.000060 0.000060 -135.617828 2.228885 0.850567 90.185791
[L_rear_hand01]
50 101.696655 -8.392275 -7.654577 -34.454281 -18.946800 151.655121 102.329041
51 101.696655 -8.392275 -7.654577 -34.454281 -18.946800 151.655121 102.329041
[L_rear_hand02]
50 102.726799 -1.568258 5.773216 83.407906 30.330435 172.796509 102.900848
51 102.726799 -1.568258 5.773216 83.407906 30.330435 172.796509 102.900848
[L_rear_hand03]
50 104.552910 9.721220 -10.420293 -161.379868 -16.473232 -150.512238 105.519653
51 104.552910 9.721220 -10.420293 -161.379868 -16.473232 -150.512238 105.519653
